<svg xmlns="http://www.w3.org/2000/svg" xmlns:xlink="http://www.w3.org/1999/xlink" version="1.1" x="0px" y="0px" 
viewBox="-5 10 110 80" 
enable-background="new -5 10 110 80" 
xml:space="preserve">
<path  fill="#cccccc" d="M0,84.341h29.412V15.659H0V84.341z M27.014,18.057v9.225h-5.598l4.147-4.147c0.229-0.23,0.229-0.603,0-0.832l-4.245-4.245  H27.014z M2.398,18.057h17.464c0.01,0.135,0.06,0.268,0.163,0.371l4.29,4.29l-4.29,4.29c-0.078,0.078-0.119,0.174-0.145,0.273H2.398  V18.057z M2.398,29.635h24.615v7.059H2.398V29.635z M2.398,37.871h24.615v7.646H2.398V37.871z M2.398,46.694h24.615v7.647H2.398  V46.694z M2.398,55.517h24.615v7.647H2.398V55.517z M2.398,64.341h24.615v7.647H2.398V64.341z M2.398,73.165h24.615v8.778H2.398  V73.165z M13.241,20.803H5.745c-0.286,0-0.519,0.231-0.519,0.519c0,0.286,0.232,0.519,0.519,0.519h7.496  c0.286,0,0.519-0.232,0.519-0.519C13.76,21.035,13.527,20.803,13.241,20.803z M10.515,23.701h-4.77  c-0.229,0-0.414,0.186-0.414,0.414s0.186,0.414,0.414,0.414h4.77c0.229,0,0.415-0.186,0.415-0.414S10.744,23.701,10.515,23.701z   M13.241,31.077H5.745c-0.286,0-0.519,0.232-0.519,0.519s0.232,0.519,0.519,0.519h7.496c0.286,0,0.519-0.232,0.519-0.519  S13.527,31.077,13.241,31.077z M10.515,33.975h-4.77c-0.229,0-0.414,0.185-0.414,0.414c0,0.229,0.186,0.414,0.414,0.414h4.77  c0.229,0,0.415-0.185,0.415-0.414C10.93,34.16,10.744,33.975,10.515,33.975z M21.28,39.767H5.745c-0.412,0-0.747,0.334-0.747,0.747  c0,0.413,0.335,0.747,0.747,0.747H21.28c0.412,0,0.747-0.334,0.747-0.747C22.027,40.101,21.692,39.767,21.28,39.767z M15.631,42.71  H5.745c-0.329,0-0.596,0.267-0.596,0.596s0.267,0.596,0.596,0.596h9.886c0.329,0,0.596-0.267,0.596-0.596S15.96,42.71,15.631,42.71z   M13.241,48.625H5.745c-0.286,0-0.519,0.232-0.519,0.519s0.232,0.519,0.519,0.519h7.496c0.286,0,0.519-0.232,0.519-0.519  S13.527,48.625,13.241,48.625z M10.515,51.523h-4.77c-0.229,0-0.414,0.185-0.414,0.414c0,0.229,0.186,0.414,0.414,0.414h4.77  c0.229,0,0.415-0.185,0.415-0.414C10.93,51.708,10.744,51.523,10.515,51.523z M15.397,57.379H5.745  c-0.325,0-0.589,0.264-0.589,0.589s0.264,0.589,0.589,0.589h9.652c0.325,0,0.589-0.264,0.589-0.589S15.723,57.379,15.397,57.379z   M11.888,60.292H5.745c-0.259,0-0.47,0.21-0.47,0.47c0,0.259,0.211,0.469,0.47,0.469h6.143c0.26,0,0.47-0.21,0.47-0.469  C12.357,60.501,12.147,60.292,11.888,60.292z M19.221,66.292H5.745c-0.384,0-0.695,0.312-0.695,0.695  c0,0.385,0.312,0.696,0.695,0.696h13.476c0.385,0,0.697-0.311,0.697-0.696C19.918,66.604,19.605,66.292,19.221,66.292z   M14.321,69.226H5.745c-0.306,0-0.555,0.248-0.555,0.555s0.249,0.555,0.555,0.555h8.576c0.306,0,0.555-0.249,0.555-0.555  S14.627,69.226,14.321,69.226z M13.241,75.292H5.745c-0.286,0-0.519,0.232-0.519,0.519s0.232,0.519,0.519,0.519h7.496  c0.286,0,0.519-0.232,0.519-0.519S13.527,75.292,13.241,75.292z M10.515,78.191h-4.77c-0.229,0-0.414,0.185-0.414,0.414  c0,0.229,0.186,0.414,0.414,0.414h4.77c0.229,0,0.415-0.185,0.415-0.414C10.93,78.375,10.744,78.191,10.515,78.191z M35.295,75.517  h29.411V15.659H35.295V75.517z M62.309,18.057v9.225H56.71l4.147-4.147c0.229-0.23,0.229-0.603,0-0.832l-4.245-4.245H62.309z   M37.692,18.057h17.464c0.01,0.135,0.06,0.268,0.163,0.371l4.29,4.29l-4.29,4.29c-0.078,0.078-0.119,0.174-0.145,0.273H37.692  V18.057z M37.692,29.635h24.616v7.059H37.692V29.635z M37.692,37.871h24.616v7.646H37.692V37.871z M37.692,46.694h24.616v7.647  H37.692V46.694z M37.692,55.517h24.616v7.647H37.692V55.517z M37.692,64.341h24.616v8.779H37.692V64.341z M48.535,20.803h-7.496  c-0.286,0-0.519,0.231-0.519,0.519c0,0.286,0.232,0.519,0.519,0.519h7.496c0.287,0,0.52-0.232,0.52-0.519  C49.055,21.035,48.822,20.803,48.535,20.803z M45.809,23.701h-4.77c-0.229,0-0.414,0.186-0.414,0.414s0.186,0.414,0.414,0.414h4.77  c0.229,0,0.414-0.186,0.414-0.414S46.037,23.701,45.809,23.701z M48.535,31.077h-7.496c-0.286,0-0.519,0.232-0.519,0.519  s0.232,0.519,0.519,0.519h7.496c0.287,0,0.52-0.232,0.52-0.519S48.822,31.077,48.535,31.077z M45.809,33.975h-4.77  c-0.229,0-0.414,0.185-0.414,0.414c0,0.229,0.186,0.414,0.414,0.414h4.77c0.229,0,0.414-0.185,0.414-0.414  C46.223,34.16,46.037,33.975,45.809,33.975z M56.574,39.767H41.039c-0.412,0-0.746,0.334-0.746,0.747  c0,0.413,0.334,0.747,0.746,0.747h15.535c0.412,0,0.747-0.334,0.747-0.747C57.321,40.101,56.986,39.767,56.574,39.767z   M50.925,42.71h-9.886c-0.329,0-0.596,0.267-0.596,0.596s0.267,0.596,0.596,0.596h9.886c0.329,0,0.596-0.267,0.596-0.596  S51.254,42.71,50.925,42.71z M48.535,48.625h-7.496c-0.286,0-0.519,0.232-0.519,0.519s0.232,0.519,0.519,0.519h7.496  c0.287,0,0.52-0.232,0.52-0.519S48.822,48.625,48.535,48.625z M45.809,51.523h-4.77c-0.229,0-0.414,0.185-0.414,0.414  c0,0.229,0.186,0.414,0.414,0.414h4.77c0.229,0,0.414-0.185,0.414-0.414C46.223,51.708,46.037,51.523,45.809,51.523z M50.691,57.379  h-9.652c-0.324,0-0.588,0.264-0.588,0.589s0.264,0.589,0.588,0.589h9.652c0.326,0,0.59-0.264,0.59-0.589  S51.018,57.379,50.691,57.379z M47.182,60.292h-6.143c-0.259,0-0.469,0.21-0.469,0.47c0,0.259,0.21,0.469,0.469,0.469h6.143  c0.26,0,0.471-0.21,0.471-0.469C47.652,60.501,47.441,60.292,47.182,60.292z M54.516,66.292H41.039  c-0.384,0-0.695,0.312-0.695,0.695c0,0.385,0.312,0.696,0.695,0.696h13.477c0.384,0,0.696-0.311,0.696-0.696  C55.212,66.604,54.899,66.292,54.516,66.292z M49.615,69.226h-8.576c-0.306,0-0.555,0.248-0.555,0.555s0.249,0.555,0.555,0.555  h8.576c0.307,0,0.555-0.249,0.555-0.555S49.922,69.226,49.615,69.226z M70.588,15.659v51.035H100V15.659H70.588z M72.986,18.057  H90.45c0.01,0.135,0.06,0.268,0.163,0.371l4.291,4.29l-4.291,4.29c-0.078,0.078-0.119,0.174-0.145,0.273H72.986V18.057z   M97.603,64.296H72.986v-8.779h24.616V64.296z M97.603,54.341H72.986v-7.647h24.616V54.341z M97.603,45.517H72.986v-7.646h24.616  V45.517z M97.603,36.694H72.986v-7.059h24.616V36.694z M97.603,27.282h-5.599l4.147-4.147c0.229-0.23,0.229-0.603,0-0.832  l-4.245-4.245h5.696V27.282z M83.83,20.803h-7.496c-0.287,0-0.52,0.231-0.52,0.519c0,0.286,0.232,0.519,0.52,0.519h7.496  c0.286,0,0.518-0.232,0.518-0.519C84.348,21.035,84.116,20.803,83.83,20.803z M81.104,23.701h-4.77  c-0.229,0-0.414,0.186-0.414,0.414s0.186,0.414,0.414,0.414h4.77c0.229,0,0.414-0.186,0.414-0.414S81.332,23.701,81.104,23.701z   M76.334,32.114h7.496c0.286,0,0.518-0.232,0.518-0.519s-0.231-0.519-0.518-0.519h-7.496c-0.287,0-0.52,0.232-0.52,0.519  S76.047,32.114,76.334,32.114z M81.104,33.975h-4.77c-0.229,0-0.414,0.185-0.414,0.414c0,0.229,0.186,0.414,0.414,0.414h4.77  c0.229,0,0.414-0.185,0.414-0.414C81.518,34.16,81.332,33.975,81.104,33.975z M76.334,41.26h15.534c0.413,0,0.747-0.334,0.747-0.747  c0-0.412-0.334-0.747-0.747-0.747H76.334c-0.413,0-0.747,0.334-0.747,0.747C75.587,40.926,75.921,41.26,76.334,41.26z M86.219,42.71  h-9.885c-0.33,0-0.596,0.267-0.596,0.596s0.266,0.596,0.596,0.596h9.885c0.33,0,0.596-0.267,0.596-0.596S86.549,42.71,86.219,42.71z   M76.334,49.663h7.496c0.286,0,0.518-0.232,0.518-0.519s-0.231-0.519-0.518-0.519h-7.496c-0.287,0-0.52,0.232-0.52,0.519  S76.047,49.663,76.334,49.663z M81.104,51.523h-4.77c-0.229,0-0.414,0.185-0.414,0.414c0,0.229,0.186,0.414,0.414,0.414h4.77  c0.229,0,0.414-0.185,0.414-0.414C81.518,51.708,81.332,51.523,81.104,51.523z M76.334,58.557h9.652  c0.324,0,0.588-0.264,0.588-0.589s-0.264-0.589-0.588-0.589h-9.652c-0.326,0-0.59,0.264-0.59,0.589S76.008,58.557,76.334,58.557z   M82.477,60.292h-6.143c-0.26,0-0.47,0.21-0.47,0.47c0,0.259,0.21,0.469,0.47,0.469h6.143c0.26,0,0.47-0.21,0.47-0.469  C82.946,60.501,82.736,60.292,82.477,60.292z"/></svg>